<svg xmlns="http://www.w3.org/2000/svg" viewBox="0 0 192 192"><title>PeerFlow</title><g transform="translate(9.5 10.5)" fill="#1D9E75"><rect x="79" y="0" width="13" height="15"/><rect x="0" y="81" width="15" height="13"/><rect x="158" y="81" width="14" height="13"/><rect x="79" y="156" width="13" height="15"/><path d="M52 24H116V39H99V56H83V70H67V39H52Z"/><path d="M24 57H39V74H56V89H70V106H39V121H24Z"/><path d="M134 53H149V118H134V101H117V85H103V69H134Z"/><path d="M119 147H55V132H72V115H88V101H104V132H119Z"/></g></svg>
